<mxfile host="app.diagrams.net" modified="2024-04-19T14:41:45.077Z" agent="Mozilla/5.0 (X11; Linux x86_64) AppleWebKit/537.36 (KHTML, like Gecko) Chrome/124.0.0.0 Safari/537.36" version="24.2.5" etag="GaQGBAQXf3JhFuB6oAQ7" type="github">
  <diagram name="Page-1" id="2ADFN7OCc5vv0tATwvCK">
    <mxGraphModel>
      <root>
        <mxCell id="0" />
        <mxCell id="1" parent="0" />
      </root>
    </mxGraphModel>
  </diagram>
</mxfile>
